<?xml version="1.0" encoding="UTF-8" standalone="no"?>
<!DOCTYPE svg PUBLIC "-//W3C//DTD SVG 1.1//EN" "http://www.w3.org/Graphics/SVG/1.1/DTD/svg11.dtd">
<svg width="100%" height="100%" viewBox="0 0 661 780" version="1.1" xmlns="http://www.w3.org/2000/svg" xmlns:xlink="http://www.w3.org/1999/xlink" xml:space="preserve" xmlns:serif="http://www.serif.com/" style="fill-rule:evenodd;clip-rule:evenodd;stroke-linecap:round;stroke-linejoin:round;stroke-miterlimit:1.5;">
    <g transform="matrix(1,0,0,1,-1420,0)">
        <g id="Artboard3" transform="matrix(1,0,0,1,-0.54321,0)">
            <rect x="1420.54" y="0" width="660.543" height="779.753" style="fill:none;"/>
            <g id="Shield">
                <g transform="matrix(1,0,0,1,0.54321,0)">
                    <path d="M1750.85,770.59C1724.15,768.057 1589.13,686.164 1501.48,569.329C1434.7,480.321 1432.71,365.513 1431.84,250.743C1431.35,186.728 1423.22,125.046 1449.43,94.509C1483.16,55.205 1615.4,78.833 1750.85,27.241L1750.27,27.241C1885.72,78.833 2017.96,55.205 2051.69,94.509C2077.9,125.046 2069.77,186.728 2069.28,250.743C2068.41,365.513 2066.42,480.321 1999.64,569.329C1911.99,686.164 1776.97,768.057 1750.27,770.59"/>
                </g>
                <g transform="matrix(0.876553,0,0,0.876553,216.639,49.245)">
                    <path d="M1750.85,770.59C1724.15,768.057 1589.13,686.164 1501.48,569.329C1434.7,480.321 1432.71,365.513 1431.84,250.743C1431.35,186.728 1427.11,118.03 1438.06,93.371C1447.93,71.126 1615.4,78.833 1750.85,27.241L1750.27,27.241C1885.72,78.833 2040.27,63.411 2056.24,89.959C2070.61,113.839 2069.77,186.728 2069.28,250.743C2068.41,365.513 2066.42,480.321 1999.64,569.329C1911.99,686.164 1776.97,768.057 1750.27,770.59" style="fill:none;stroke:white;stroke-width:18.25px;"/>
                </g>
            </g>
            <g transform="matrix(1,0,0,1,0.54321,-9)">
                <path d="M1838.84,624.366L1657.2,624.366L1657.6,584.598C1676.08,579.197 1690.8,567.788 1694.92,544.712C1594.38,568.036 1506.76,459.096 1569.57,350.257C1592.92,309.787 1722.76,201.473 1747.19,132.786L1748.43,132.786C1772.86,201.473 1902.7,309.787 1926.05,350.257C1988.86,459.096 1901.24,568.036 1800.69,544.712C1804.82,567.788 1819.54,579.197 1838.03,584.598L1838.84,624.366Z" style="fill:white;"/>
                <path d="M1838.84,624.366L1657.2,624.366L1657.6,584.598C1676.08,579.197 1690.8,567.788 1694.92,544.712C1594.38,568.036 1506.76,459.096 1569.57,350.257C1592.92,309.787 1722.76,201.473 1747.19,132.786L1748.43,132.786C1772.86,201.473 1902.7,309.787 1926.05,350.257C1988.86,459.096 1901.24,568.036 1800.69,544.712C1804.82,567.788 1819.54,579.197 1838.03,584.598L1838.84,624.366ZM1747.81,134.021C1735.21,168.33 1696.91,212.309 1658.7,252.789C1620.34,293.441 1582.09,330.557 1570.44,350.757C1508.13,458.735 1594.95,566.878 1694.7,543.738C1695.03,543.662 1695.37,543.756 1695.61,543.987C1695.86,544.219 1695.97,544.557 1695.91,544.888C1691.76,568.112 1677.09,579.757 1658.59,585.346C1658.59,585.346 1658.21,623.366 1658.21,623.366L1837.82,623.366C1837.82,623.366 1837.04,585.348 1837.04,585.348C1818.53,579.76 1803.86,568.115 1799.71,544.888C1799.65,544.557 1799.76,544.219 1800.01,543.987C1800.25,543.756 1800.59,543.662 1800.92,543.738C1900.67,566.878 1987.49,458.735 1925.18,350.757C1913.53,330.557 1875.28,293.441 1836.92,252.789C1798.71,212.309 1760.41,168.33 1747.81,134.021Z"/>
            </g>
            <g transform="matrix(0.893556,0,0,0.790388,187.285,76.4017)">
                <path d="M1748.75,125.195C1773.19,193.882 1899.83,310.689 1923.18,351.16C1952.6,402.14 1951.23,499.494 1894.43,530.902C1812.88,576.006 1775.13,513.53 1775.13,513.53C1775.13,513.53 1772.38,583.744 1777.99,611.537C1781.57,629.275 1796.12,647.256 1808.77,656.251L1683.82,656.251C1696.46,647.256 1711.02,629.275 1714.6,611.537C1720.21,583.744 1717.45,513.53 1717.45,513.53C1717.45,513.53 1683.07,576.006 1601.51,530.902C1544.72,499.494 1543.35,402.14 1572.76,351.16C1596.12,310.689 1722.76,193.882 1747.19,125.195L1748.75,125.195Z" style="stroke:white;stroke-width:1.19px;"/>
            </g>
            <g transform="matrix(1.69828,0,0,1.69828,-1184.16,-252.067)">
                <g transform="matrix(84.7917,0,0,84.7917,1795.96,406.55)">
                </g>
                <text x="1659.33px" y="406.55px" style="font-family:'Calibri-Bold', 'Calibri';font-weight:700;font-size:84.792px;fill:white;">A<tspan x="1709.72px 1754.6px " y="406.55px 406.55px ">CE</tspan></text>
            </g>
        </g>
    </g>
</svg>
