<?xml version="1.0" encoding="UTF-8" standalone="no"?>
<!DOCTYPE svg PUBLIC "-//W3C//DTD SVG 1.1//EN" "http://www.w3.org/Graphics/SVG/1.1/DTD/svg11.dtd">
<svg width="100%" height="100%" viewBox="0 0 661 780" version="1.1" xmlns="http://www.w3.org/2000/svg" xmlns:xlink="http://www.w3.org/1999/xlink" xml:space="preserve" xmlns:serif="http://www.serif.com/" style="fill-rule:evenodd;clip-rule:evenodd;stroke-linecap:round;stroke-linejoin:round;stroke-miterlimit:1.5;">
    <g transform="matrix(1,0,0,1,-710,0)">
        <g id="Artboard2" transform="matrix(1,0,0,1,-0.54321,0)">
            <rect x="710.543" y="0" width="660.543" height="779.753" style="fill:none;"/>
            <g id="Shield" transform="matrix(1,0,0,1,-710.29,0)">
                <g transform="matrix(1,0,0,1,0.54321,0)">
                    <path d="M1750.85,770.59C1724.15,768.057 1589.13,686.164 1501.48,569.329C1434.7,480.321 1432.71,365.513 1431.84,250.743C1431.35,186.728 1423.22,125.046 1449.43,94.509C1483.16,55.205 1615.4,78.833 1750.85,27.241L1750.27,27.241C1885.72,78.833 2017.96,55.205 2051.69,94.509C2077.9,125.046 2069.77,186.728 2069.28,250.743C2068.41,365.513 2066.42,480.321 1999.64,569.329C1911.99,686.164 1776.97,768.057 1750.27,770.59"/>
                </g>
                <g transform="matrix(0.876553,0,0,0.876553,216.639,49.245)">
                    <path d="M1750.85,770.59C1724.15,768.057 1589.13,686.164 1501.48,569.329C1434.7,480.321 1432.71,365.513 1431.84,250.743C1431.35,186.728 1427.11,118.03 1438.06,93.371C1447.93,71.126 1615.4,78.833 1750.85,27.241L1750.27,27.241C1885.72,78.833 2040.27,63.411 2056.24,89.959C2070.61,113.839 2069.77,186.728 2069.28,250.743C2068.41,365.513 2066.42,480.321 1999.64,569.329C1911.99,686.164 1776.97,768.057 1750.27,770.59" style="fill:none;stroke:white;stroke-width:18.25px;"/>
                </g>
            </g>
            <g transform="matrix(1.01776,0,0,1.0355,-10.7381,-14.2997)">
                <g transform="matrix(1,0,0,0.976227,1.44939,6.06793)">
                    <path d="M1031.76,252.949C1076.88,195.646 1167.12,195.646 1212.24,235.942C1257.36,276.238 1257.36,356.831 1212.24,437.423C1180.66,497.867 1099.44,558.312 1031.76,598.608C964.081,558.312 882.865,497.867 851.28,437.423C806.16,356.831 806.16,276.238 851.28,235.942C896.401,195.646 986.641,195.646 1031.76,252.949Z"/>
                </g>
                <g transform="matrix(-1,0,0,1,2065.56,0)">
                    <path d="M1032.83,596.865C1036.99,594.589 1174.59,519.052 1225.26,443.592C1276.26,367.642 1269.82,287.01 1221.57,244.938C1167.01,197.371 1084.41,206.762 1033.21,257.932L1033.21,257.076C1033.07,257.217 1032.92,257.359 1032.78,257.502C1032.63,257.359 1032.49,257.217 1032.35,257.076L1032.35,257.932C981.151,206.762 898.549,197.371 843.99,244.938C795.735,287.01 789.299,367.642 840.296,443.592C890.964,519.052 1028.56,594.589 1032.73,596.865C1032.73,596.9 1032.73,596.918 1032.73,596.918C1032.73,596.918 1032.75,596.909 1032.78,596.892C1032.81,596.909 1032.83,596.918 1032.83,596.918C1032.83,596.918 1032.83,596.9 1032.83,596.865ZM1032.78,292.094L1033.21,292.671L1041.77,281.269C1086.09,227.077 1164.84,226.409 1205.82,261.521C1250.27,299.617 1241.3,376.145 1206.09,432.798C1206.06,432.843 1206.04,432.894 1206.01,432.937C1164.8,488.395 1107.95,524.894 1032.78,570.29C957.608,524.894 900.755,488.395 859.546,432.937C859.514,432.894 859.494,432.843 859.466,432.798C824.26,376.145 815.286,299.617 859.742,261.521C900.715,226.409 979.466,227.077 1023.78,281.269L1032.35,292.671L1032.78,292.094Z" style="fill:white;"/>
                </g>
                <g transform="matrix(1.69828,0,0,1.69828,-1897.37,-281.067)">
                    <g transform="matrix(76.1984,0,0,76.1984,1832.83,406.55)">
                    </g>
                    <text x="1622.47px" y="406.55px" style="font-family:'Calibri-Bold', 'Calibri';font-weight:700;font-size:76.198px;fill:white;">HE<tspan x="1706.78px 1752.95px 1795.1px " y="406.55px 406.55px 406.55px ">ART</tspan></text>
                </g>
            </g>
        </g>
    </g>
</svg>
