<?xml version="1.0" encoding="UTF-8" standalone="no"?>
<!DOCTYPE svg PUBLIC "-//W3C//DTD SVG 1.1//EN" "http://www.w3.org/Graphics/SVG/1.1/DTD/svg11.dtd">
<svg width="100%" height="100%" viewBox="0 0 661 780" version="1.1" xmlns="http://www.w3.org/2000/svg" xmlns:xlink="http://www.w3.org/1999/xlink" xml:space="preserve" xmlns:serif="http://www.serif.com/" style="fill-rule:evenodd;clip-rule:evenodd;stroke-linecap:round;stroke-linejoin:round;stroke-miterlimit:1.5;">
    <g id="Artboard1" transform="matrix(0.344033,0,0,0.721994,0,0)">
        <rect x="0" y="0" width="1920" height="1080" style="fill:none;"/>
        <g id="Shield" transform="matrix(2.9067,0,0,1.38505,-4129.09,4.9207e-15)">
            <g transform="matrix(1,0,0,1,0.54321,0)">
                <path d="M1750.85,770.59C1724.15,768.057 1589.13,686.164 1501.48,569.329C1434.7,480.321 1432.71,365.513 1431.84,250.743C1431.35,186.728 1423.22,125.046 1449.43,94.509C1483.16,55.205 1615.4,78.833 1750.85,27.241L1750.27,27.241C1885.72,78.833 2017.96,55.205 2051.69,94.509C2077.9,125.046 2069.77,186.728 2069.28,250.743C2068.41,365.513 2066.42,480.321 1999.64,569.329C1911.99,686.164 1776.97,768.057 1750.27,770.59"/>
            </g>
            <g transform="matrix(0.876553,0,0,0.876553,216.639,49.245)">
                <path d="M1750.85,770.59C1724.15,768.057 1589.13,686.164 1501.48,569.329C1434.7,480.321 1432.71,365.513 1431.84,250.743C1431.35,186.728 1427.11,118.03 1438.06,93.371C1447.93,71.126 1615.4,78.833 1750.85,27.241L1750.27,27.241C1885.72,78.833 2040.27,63.411 2056.24,89.959C2070.61,113.839 2069.77,186.728 2069.28,250.743C2068.41,365.513 2066.42,480.321 1999.64,569.329C1911.99,686.164 1776.97,768.057 1750.27,770.59" style="fill:none;stroke:white;stroke-width:18.25px;"/>
            </g>
        </g>
        <g transform="matrix(4.93638,0,0,2.35221,-7571.09,-331.12)">
            <g transform="matrix(77.1369,0,0,77.1369,1809,406.55)">
            </g>
            <text x="1646.29px" y="406.55px" style="font-family:'Calibri-Bold', 'Calibri';font-weight:700;font-size:77.137px;fill:white;">KING</text>
        </g>
        <g transform="matrix(2.99101,0,0,1.46345,-253.134,-1285.07)">
            <path d="M209.04,1337.59L182.935,1119.75L333.021,1186.78L397.671,1066.64L405.441,1050.75L413.539,1066.68L477.669,1187.02L628.025,1117.65L602.545,1337.59L209.04,1337.59ZM225.146,1319.59C225.146,1319.59 586.407,1319.59 586.407,1319.59L606.343,1151.62L470.327,1211.52L405.558,1089.97L340.309,1211.23C340.309,1211.23 204.883,1151.88 204.883,1151.88L225.146,1319.59Z" style="fill:white;"/>
        </g>
        <g transform="matrix(2.93495,0,0,1.43602,-455.389,-55.0686)">
            <path d="M291.455,528.576L674.637,530.647" style="fill:none;stroke:white;stroke-width:17.59px;stroke-linecap:butt;stroke-linejoin:miter;"/>
        </g>
    </g>
</svg>
