<?xml version="1.0" standalone="no"?>
<!DOCTYPE svg PUBLIC "-//W3C//DTD SVG 20010904//EN"
 "http://www.w3.org/TR/2001/REC-SVG-20010904/DTD/svg10.dtd">
<svg version="1.0" xmlns="http://www.w3.org/2000/svg"
 width="165.000000pt" height="165.000000pt" viewBox="0 0 165.000000 165.000000"
 preserveAspectRatio="xMidYMid meet">
<metadata>
Created by potrace 1.14, written by Peter Selinger 2001-2017
</metadata>
<g transform="translate(0.000000,165.000000) scale(0.100000,-0.100000)"
fill="#000000" stroke="none">
<path d="M436 1230 c-209 -120 -383 -223 -388 -228 -6 -6 6 -19 32 -33 l41
-23 -35 -18 c-50 -26 -51 -34 -6 -59 l41 -23 -35 -18 c-50 -26 -51 -34 -6 -59
l40 -23 -37 -20 c-20 -12 -35 -25 -34 -31 2 -8 486 -293 740 -436 l39 -22 378
218 c209 120 385 224 392 230 11 10 6 17 -27 36 l-42 23 35 18 c50 26 51 34 6
59 l-41 23 35 18 c50 26 51 34 6 59 l-40 23 37 20 c20 12 36 25 37 29 1 8
-769 457 -782 457 -4 -1 -178 -99 -386 -220z m741 -28 c188 -108 343 -201 344
-207 2 -11 -674 -405 -694 -405 -17 0 -695 393 -699 405 -3 10 668 403 692
404 8 1 169 -88 357 -197z m-682 -472 l329 -189 30 18 c17 10 166 96 330 191
274 158 301 171 324 160 21 -9 23 -13 11 -24 -35 -33 -684 -397 -700 -393 -13
4 -467 262 -666 380 -27 15 -31 22 -22 33 6 8 17 14 24 14 6 0 159 -85 340
-190z m0 -100 l329 -189 30 18 c17 10 166 96 330 191 274 158 301 171 324 160
21 -9 23 -13 11 -24 -35 -33 -684 -397 -700 -393 -13 4 -467 262 -666 380 -27
15 -31 22 -22 33 6 8 17 14 24 14 6 0 159 -85 340 -190z m0 -100 l329 -189 30
18 c17 10 166 96 330 191 274 158 301 171 324 160 21 -9 23 -13 11 -24 -35
-33 -684 -397 -700 -393 -13 4 -467 262 -666 380 -27 15 -31 22 -22 33 6 8 17
14 24 14 6 0 159 -85 340 -190z"/>
<path d="M844 1182 c-22 -11 -59 -31 -83 -46 -26 -17 -49 -25 -62 -21 -24 8
-266 -132 -252 -146 5 -5 86 -54 180 -108 l169 -98 118 68 c133 75 143 83 126
94 -8 5 5 17 36 34 32 17 56 39 69 64 l20 37 -20 37 c-32 59 -100 95 -188 100
-56 3 -81 0 -113 -15z m184 -82 c51 -31 41 -53 -44 -100 l-42 -22 -71 38 c-39
22 -71 41 -71 44 0 3 21 17 48 32 59 34 131 37 180 8z"/>
</g>
</svg>
